STARTFONT 2.1
COMMENT "$XConsortium: us9x17.bdf /main/2 1996/10/29 18:56:11 drk $"
COMMENT "Hand-pixeled glyphs created with modified X Font Editor (Xfed)"
FONT -HP-HP User-Medium-R-Normal-Serif-13-130-72-72-M-90-ISO8859-1
SIZE 13 72 72 
FONTBOUNDINGBOX 9 17 0 -4
STARTPROPERTIES 25
COMMENT "Begin X Logical Font Description (XLFD) Version 1.5"
COPYRIGHT "(c) Copyright 1994, Hewlett Packard Company"
NOTICE "Created by the User Interaction Design Group, July 1994."
NOTICE "Hewlett Packard Company, 3000 Hanover St., Palo Alto, CA 94303, USA"
FONTNAME_REGISTRY ""
FOUNDRY "HP"
FAMILY_NAME "HP User"
WEIGHT_NAME "Medium"
SLANT "R"
ADD_STYLE_NAME "Serif"
SETWIDTH_NAME "Normal"
PIXEL_SIZE 13
POINT_SIZE 130
RESOLUTION_X 72
RESOLUTION_Y 72
SPACING "M"
AVERAGE_WIDTH 90
CHARSET_REGISTRY "ISO8859"
CHARSET_ENCODING "1"
COMMENT "End X Logical Font Description (XLFD)"
CHARSET_COLLECTIONS "ISO8859-1"
FULL_NAME "HP User9x17"
CAP_HEIGHT 10
X_HEIGHT 7
FONT_ASCENT 13
FONT_DESCENT 4
DEFAULT_CHAR 32
COMMENT "End of Font Properties"
ENDPROPERTIES
CHARS 223
STARTCHAR Null
ENCODING 0
SWIDTH 692 0
DWIDTH 9 0
BBX 8 17 1 -4
BITMAP
8800
c800
a800
9800
8800
0000
2200
2200
2200
2200
1c00
0000
0800
0800
0800
0800
0f00
ENDCHAR
STARTCHAR StartOfHeading
ENCODING 1
SWIDTH 692 0
DWIDTH 9 0
BBX 8 17 1 -4
BITMAP
7800
8000
7000
0800
f000
0000
1c00
2200
2200
2200
1c00
0000
1100
1100
1f00
1100
1100
ENDCHAR
STARTCHAR StartOfText
ENCODING 2
SWIDTH 692 0
DWIDTH 9 0
BBX 8 17 1 -4
BITMAP
7800
8000
7000
0800
f000
0000
3e00
0800
0800
0800
0800
0000
1100
0a00
0400
0a00
1100
ENDCHAR
STARTCHAR EndOfText
ENCODING 3
SWIDTH 692 0
DWIDTH 9 0
BBX 8 17 1 -4
BITMAP
f800
8000
f000
8000
f800
0000
7c00
1000
1000
1000
1000
0000
2200
1400
0800
1400
2200
ENDCHAR
STARTCHAR EndOfTransmit
ENCODING 4
SWIDTH 692 0
DWIDTH 9 0
BBX 8 17 1 -4
BITMAP
f800
8000
f000
8000
f800
0000
3800
4400
4400
4400
3800
0000
3e00
0800
0800
0800
0800
ENDCHAR
STARTCHAR Enquiry
ENCODING 5
SWIDTH 692 0
DWIDTH 9 0
BBX 8 17 1 -4
BITMAP
f800
8000
f000
8000
f800
0000
4400
6400
5400
4c00
4400
0000
1c00
2200
2a00
2400
1a00
ENDCHAR
STARTCHAR Acknowledge
ENCODING 6
SWIDTH 692 0
DWIDTH 9 0
BBX 8 17 1 -4
BITMAP
7000
8800
f800
8800
8800
0000
3800
4400
4000
4400
3800
0000
2400
2800
3000
2800
2400
ENDCHAR
STARTCHAR Bell
ENCODING 7
SWIDTH 692 0
DWIDTH 9 0
BBX 8 17 1 -4
BITMAP
0000
0400
0800
1800
2400
2400
4200
4200
4200
4200
4200
8100
FF00
0800
0c00
0000
0000
ENDCHAR
STARTCHAR BackSpace
ENCODING 8
SWIDTH 692 0
DWIDTH 9 0
BBX 8 17 1 -4
BITMAP
0000
F000
4800
7000
4800
4800
F000
0000
0e00
1100
1000
0e00
0100
1100
0e00
0000
0000
ENDCHAR
STARTCHAR HorizontalTab
ENCODING 9
SWIDTH 692 0
DWIDTH 9 0
BBX 8 17 1 -4
BITMAP
0000
8800
8800
F800
8800
8800
8800
0000
1F00
0400
0400
0400
0400
0400
0000
0000
0000
ENDCHAR
STARTCHAR LineFeed
ENCODING 10
SWIDTH 692 0
DWIDTH 9 0
BBX 8 17 1 -4
BITMAP
0000
8000
8000
8000
8000
8000
F800
0000
1F00
1000
1E00
1000
1000
1000
0000
0000
0000
ENDCHAR
STARTCHAR VerticalTab
ENCODING 11
SWIDTH 692 0
DWIDTH 9 0
BBX 8 17 1 -4
BITMAP
0000
8800
8800
5000
5000
2000
2000
0000
1F00
0400
0400
0400
0400
0400
0000
0000
0000
ENDCHAR
STARTCHAR FormFeed
ENCODING 12
SWIDTH 692 0
DWIDTH 9 0
BBX 8 17 1 -4
BITMAP
0000
F800
8000
F000
8000
8000
8000
0000
1F00
1000
1E00
1000
1000
1000
0000
0000
0000
ENDCHAR
STARTCHAR CarriageReturn
ENCODING 13
SWIDTH 692 0
DWIDTH 9 0
BBX 8 17 1 -4
BITMAP
0000
7000
8800
8000
8000
8800
7000
0000
1E00
1100
1100
1E00
1200
1100
0000
0000
0000
ENDCHAR
STARTCHAR ShiftOut
ENCODING 14
SWIDTH 692 0
DWIDTH 9 0
BBX 8 17 1 -4
BITMAP
0000
7000
8800
8000
7000
0800
8800
7000
0000
0e00
1100
1100
1100
1100
0e00
0000
0000
ENDCHAR
STARTCHAR ShiftIn
ENCODING 15
SWIDTH 692 0
DWIDTH 9 0
BBX 7 17 1 -4
BITMAP
0000
7000
8800
8000
7000
0800
8800
7000
0000
0e00
0400
0400
0400
0400
0e00
0000
0000
ENDCHAR
STARTCHAR DataLinkEscape
ENCODING 16
SWIDTH 692 0
DWIDTH 9 0
BBX 8 17 1 -4
BITMAP
f000
4800
4800
4800
f000
0000
2000
2000
2000
2000
3c00
0000
1f00
1000
1e00
1000
1f00
ENDCHAR
STARTCHAR DevCtrl1orXon
ENCODING 17
SWIDTH 692 0
DWIDTH 9 0
BBX 8 17 1 -4
BITMAP
f000
4800
4800
4800
f000
0000
3800
4400
4000
4400
3800
0000
0200
0600
0200
0200
0700
ENDCHAR
STARTCHAR DeviceControl2
ENCODING 18
SWIDTH 692 0
DWIDTH 9 0
BBX 8 17 1 -4
BITMAP
f000
4800
4800
4800
f000
0000
3800
4400
4000
4400
3800
0000
0600
0900
0200
0400
0f00
ENDCHAR
STARTCHAR DevCtrl3orXoff
ENCODING 19
SWIDTH 692 0
DWIDTH 9 0
BBX 8 17 1 -4
BITMAP
f000
4800
4800
4800
f000
0000
3800
4400
4000
4400
3800
0600
0100
0600
0100
0900
0600
ENDCHAR
STARTCHAR DeviceControl4
ENCODING 20
SWIDTH 692 0
DWIDTH 9 0
BBX 8 17 1 -4
BITMAP
f000
4800
4800
4800
f000
0000
3800
4400
4000
4400
3800
0200
0600
0a00
1200
1f00
0200
ENDCHAR
STARTCHAR NegAcknowledge
ENCODING 21
SWIDTH 692 0
DWIDTH 9 0
BBX 8 17 1 -4
BITMAP
8800
c800
a800
9800
8800
0000
3800
4400
7c00
4400
4400
0000
2400
2800
3800
2400
2200
ENDCHAR
STARTCHAR SynchronusIdle
ENCODING 22
SWIDTH 692 0
DWIDTH 9 0
BBX 8 17 1 -4
BITMAP
7800
8000
7000
0800
f000
0000
2200
2200
1400
0800
0800
0800
2200
3200
2a00
2600
2200
ENDCHAR
STARTCHAR EndTransmit
ENCODING 23
SWIDTH 692 0
DWIDTH 9 0
BBX 8 17 1 -4
BITMAP
f800
8000
f000
8000
f800
0000
7c00
1000
1000
1000
1000
0000
3c00
1200
1c00
1200
3c00
ENDCHAR
STARTCHAR Cancel
ENCODING 24
SWIDTH 692 0
DWIDTH 9 0
BBX 8 17 1 -4
BITMAP
7000
8800
8000
8800
7000
0000
3800
4400
7c00
4400
4400
0000
2200
3200
2a00
2600
2200
ENDCHAR
STARTCHAR EndOfMedium
ENCODING 25
SWIDTH 692 0
DWIDTH 9 0
BBX 8 17 1 -4
BITMAP
0000
F800
8000
F000
8000
8000
F800
0000
1100
1B00
1500
1500
1100
1100
0000
0000
0000
ENDCHAR
STARTCHAR Substitute
ENCODING 26
SWIDTH 692 0
DWIDTH 9 0
BBX 8 17 1 -4
BITMAP
7800
8000
7000
0800
f000
0000
4400
4400
4400
4400
3800
0000
3e00
1100
1e00
1100
3e00
ENDCHAR
STARTCHAR Escape
ENCODING 27
SWIDTH 692 0
DWIDTH 9 0
BBX 8 17 1 -4
BITMAP
f000
8000
e000
8000
f000
0000
3800
4000
3000
0800
7000
0000
0c00
1200
1000
1200
0c00
ENDCHAR
STARTCHAR FileSeparator
ENCODING 28
SWIDTH 692 0
DWIDTH 9 0
BBX 8 17 1 -4
BITMAP
0000
F800
8000
F000
8000
8000
8000
0000
0e00
1100
1000
0e00
0100
1100
0e00
0000
0000
ENDCHAR
STARTCHAR GroupSeparator
ENCODING 29
SWIDTH 692 0
DWIDTH 9 0
BBX 8 17 1 -4
BITMAP
0000
7000
8800
8000
9800
8800
7000
0000
0e00
1100
1000
0e00
0100
1100
0e00
0000
0000
ENDCHAR
STARTCHAR RecordSeparatr
ENCODING 30
SWIDTH 692 0
DWIDTH 9 0
BBX 8 17 1 -4
BITMAP
0000
F000
8800
8800
f000
9000
8800
0000
0e00
1100
1000
0e00
0100
1100
0e00
0000
0000
ENDCHAR
STARTCHAR UnitSeparator
ENCODING 31
SWIDTH 692 0
DWIDTH 9 0
BBX 8 17 1 -4
BITMAP
0000
8800
8800
8800
8800
8800
7000
0000
0e00
1100
1000
0e00
0100
1100
0e00
0000
0000
ENDCHAR
STARTCHAR PrintableSpace
ENCODING 32
SWIDTH 692 0
DWIDTH 9 0
BBX 9 17 0 -4
BITMAP
0000
0000
0000
0000
0000
0000
0000
0000
0000
0000
0000
0000
0000
0000
0000
0000
0000
ENDCHAR
STARTCHAR Exclamation
ENCODING 33
SWIDTH 692 0
DWIDTH 9 0
BBX 2 17 4 -4
BITMAP
0000
0000
C000
C000
C000
C000
C000
C000
C000
0000
0000
0000
C000
C000
0000
0000
0000
ENDCHAR
STARTCHAR NeutrlDblQuote
ENCODING 34
SWIDTH 692 0
DWIDTH 9 0
BBX 4 17 2 -4
BITMAP
0000
0000
9000
9000
9000
9000
9000
0000
0000
0000
0000
0000
0000
0000
0000
0000
0000
ENDCHAR
STARTCHAR NumberSign
ENCODING 35
SWIDTH 692 0
DWIDTH 9 0
BBX 8 17 1 -4
BITMAP
0000
0000
2400
2400
2400
FF00
2400
2400
2400
FF00
2400
2400
2400
2400
0000
0000
0000
ENDCHAR
STARTCHAR DollarSign
ENCODING 36
SWIDTH 692 0
DWIDTH 9 0
BBX 5 17 2 -4
BITMAP
0000
2000
2000
7800
9800
8800
c000
6000
3000
1800
8800
c800
f000
2000
2000
0000
0000
ENDCHAR
STARTCHAR PerCentSign
ENCODING 37
SWIDTH 692 0
DWIDTH 9 0
BBX 9 17 0 -4
BITMAP
0000
0100
6100
9200
9200
6400
0400
0800
0800
1000
1300
2480
2480
4300
4000
0000
0000
ENDCHAR
STARTCHAR Ampersand
ENCODING 38
SWIDTH 692 0
DWIDTH 9 0
BBX 7 17 1 -4
BITMAP
0000
0000
7000
8800
8800
8800
5000
2000
5000
4A00
8A00
8400
8C00
7200
0000
0000
0000
ENDCHAR
STARTCHAR SingleCloseQut
ENCODING 39
SWIDTH 692 0
DWIDTH 9 0
BBX 3 17 3 -4
BITMAP
0000
0000
6000
6000
2000
4000
8000
0000
0000
0000
0000
0000
0000
0000
0000
0000
0000
ENDCHAR
STARTCHAR OpenParen
ENCODING 40
SWIDTH 692 0
DWIDTH 9 0
BBX 4 17 3 -4
BITMAP
0000
1000
2000
6000
4000
C000
C000
C000
C000
C000
C000
4000
6000
2000
1000
0000
0000
ENDCHAR
STARTCHAR CloseParen
ENCODING 41
SWIDTH 692 0
DWIDTH 9 0
BBX 4 17 3 -4
BITMAP
0000
8000
4000
6000
2000
3000
3000
3000
3000
3000
3000
2000
6000
4000
8000
0000
0000
ENDCHAR
STARTCHAR Asterisk
ENCODING 42
SWIDTH 692 0
DWIDTH 9 0
BBX 7 17 1 -4
BITMAP
0000
0000
0000
0000
0000
1000
9200
5400
3800
5400
9200
1000
0000
0000
0000
0000
0000
ENDCHAR
STARTCHAR PlusSign
ENCODING 43
SWIDTH 692 0
DWIDTH 9 0
BBX 7 17 1 -4
BITMAP
0000
0000
0000
0000
0000
1000
1000
1000
fe00
1000
1000
1000
0000
0000
0000
0000
0000
ENDCHAR
STARTCHAR Comma
ENCODING 44
SWIDTH 692 0
DWIDTH 9 0
BBX 3 17 3 -4
BITMAP
0000
0000
0000
0000
0000
0000
0000
0000
0000
0000
0000
6000
6000
2000
4000
8000
0000
ENDCHAR
STARTCHAR Hyphen
ENCODING 45
SWIDTH 692 0
DWIDTH 9 0
BBX 7 17 1 -4
BITMAP
0000
0000
0000
0000
0000
0000
0000
0000
fe00
0000
0000
0000
0000
0000
0000
0000
0000
ENDCHAR
STARTCHAR Period
ENCODING 46
SWIDTH 692 0
DWIDTH 9 0
BBX 2 17 4 -4
BITMAP
0000
0000
0000
0000
0000
0000
0000
0000
0000
0000
0000
C000
C000
0000
0000
0000
0000
ENDCHAR
STARTCHAR Slash
ENCODING 47
SWIDTH 692 0
DWIDTH 9 0
BBX 7 17 1 -4
BITMAP
0000
0200
0200
0400
0400
0800
0800
1000
1000
2000
2000
4000
4000
8000
8000
0000
0000
ENDCHAR
STARTCHAR Zero
ENCODING 48
SWIDTH 692 0
DWIDTH 9 0
BBX 7 17 1 -4
BITMAP
0000
0000
0000
3800
4400
8200
8200
9200
9200
8200
8200
4400
3800
0000
0000
0000
0000
ENDCHAR
STARTCHAR One
ENCODING 49
SWIDTH 692 0
DWIDTH 9 0
BBX 3 17 3 -4
BITMAP
0000
0000
0000
2000
6000
a000
2000
2000
2000
2000
2000
2000
2000
0000
0000
0000
0000
ENDCHAR
STARTCHAR Two
ENCODING 50
SWIDTH 692 0
DWIDTH 9 0
BBX 6 17 2 -4
BITMAP
0000
0000
0000
7800
8400
8400
0400
0800
1000
2000
4000
8400
FC00
0000
0000
0000
0000
ENDCHAR
STARTCHAR Three
ENCODING 51
SWIDTH 692 0
DWIDTH 9 0
BBX 6 17 2 -4
BITMAP
0000
0000
0000
3800
4400
0400
0800
3800
0400
0400
0400
8400
7800
0000
0000
0000
0000
ENDCHAR
STARTCHAR Four
ENCODING 52
SWIDTH 692 0
DWIDTH 9 0
BBX 7 17 1 -4
BITMAP
0000
0000
0000
1000
1000
1000
2000
2400
4400
4400
FE00
0400
0400
0000
0000
0000
0000
ENDCHAR
STARTCHAR Five
ENCODING 53
SWIDTH 692 0
DWIDTH 9 0
BBX 6 17 2 -4
BITMAP
0000
0000
0000
7C00
4000
4000
7000
0800
0400
0400
0400
8800
7000
0000
0000
0000
0000
ENDCHAR
STARTCHAR Six
ENCODING 54
SWIDTH 692 0
DWIDTH 9 0
BBX 6 17 2 -4
BITMAP
0000
0000
0000
3800
4000
8000
8000
b800
c400
8400
8400
8400
7800
0000
0000
0000
0000
ENDCHAR
STARTCHAR Seven
ENCODING 55
SWIDTH 692 0
DWIDTH 9 0
BBX 6 17 2 -4
BITMAP
0000
0000
0000
FC00
0400
0800
0800
1000
1000
1000
2000
2000
2000
0000
0000
0000
0000
ENDCHAR
STARTCHAR Eight
ENCODING 56
SWIDTH 692 0
DWIDTH 9 0
BBX 6 17 2 -4
BITMAP
0000
0000
0000
7800
8400
8400
8400
7800
8400
8400
8400
8400
7800
0000
0000
0000
0000
ENDCHAR
STARTCHAR Nine
ENCODING 57
SWIDTH 692 0
DWIDTH 9 0
BBX 6 17 2 -4
BITMAP
0000
0000
0000
7800
8400
8400
8400
8C00
7400
0400
0400
0800
7000
0000
0000
0000
0000
ENDCHAR
STARTCHAR Colon
ENCODING 58
SWIDTH 692 0
DWIDTH 9 0
BBX 2 17 4 -4
BITMAP
0000
0000
0000
0000
0000
0000
C000
C000
0000
0000
0000
C000
C000
0000
0000
0000
0000
ENDCHAR
STARTCHAR Simicolon
ENCODING 59
SWIDTH 692 0
DWIDTH 9 0
BBX 3 17 3 -4
BITMAP
0000
0000
0000
0000
0000
0000
6000
6000
0000
0000
0000
6000
6000
2000
4000
8000
0000
ENDCHAR
STARTCHAR LessThanSign
ENCODING 60
SWIDTH 692 0
DWIDTH 9 0
BBX 8 17 1 -4
BITMAP
0000
0000
0000
0000
0000
0300
0e00
3800
e000
3800
0e00
0300
0000
0000
0000
0000
0000
ENDCHAR
STARTCHAR EqualsSign
ENCODING 61
SWIDTH 692 0
DWIDTH 9 0
BBX 7 17 1 -4
BITMAP
0000
0000
0000
0000
0000
0000
0000
fe00
0000
fe00
0000
0000
0000
0000
0000
0000
0000
ENDCHAR
STARTCHAR GreatrThanSign
ENCODING 62
SWIDTH 692 0
DWIDTH 9 0
BBX 8 17 1 -4
BITMAP
0000
0000
0000
0000
0000
c000
7000
1c00
0700
1c00
7000
C000
0000
0000
0000
0000
0000
ENDCHAR
STARTCHAR QuestionMark
ENCODING 63
SWIDTH 692 0
DWIDTH 9 0
BBX 6 17 2 -4
BITMAP
0000
0000
7800
CC00
CC00
0C00
1800
3000
3000
3000
0000
0000
3000
3000
0000
0000
0000
ENDCHAR
STARTCHAR CommerclAtSign
ENCODING 64
SWIDTH 692 0
DWIDTH 9 0
BBX 8 17 1 -4
BITMAP
0000
0000
3C00
4200
8200
8e00
9200
9200
9200
9200
8d00
8000
4200
3c00
0000
0000
0000
ENDCHAR
STARTCHAR A
ENCODING 65
SWIDTH 692 0
DWIDTH 9 0
BBX 9 17 0 -4
BITMAP
0000
0000
0000
0800
0800
1400
1400
2200
2200
3E00
4100
4100
E380
0000
0000
0000
0000
ENDCHAR
STARTCHAR B
ENCODING 66
SWIDTH 692 0
DWIDTH 9 0
BBX 7 17 1 -4
BITMAP
0000
0000
0000
F800
4400
4400
4400
7C00
4200
4200
4200
4200
FC00
0000
0000
0000
0000
ENDCHAR
STARTCHAR C
ENCODING 67
SWIDTH 692 0
DWIDTH 9 0
BBX 7 17 1 -4
BITMAP
0000
0000
0000
3E00
4200
8200
8000
8000
8000
8000
8200
4200
3C00
0000
0000
0000
0000
ENDCHAR
STARTCHAR D
ENCODING 68
SWIDTH 692 0
DWIDTH 9 0
BBX 8 17 1 -4
BITMAP
0000
0000
0000
FC00
4200
4100
4100
4100
4100
4100
4100
4200
Fc00
0000
0000
0000
0000
ENDCHAR
STARTCHAR E
ENCODING 69
SWIDTH 692 0
DWIDTH 9 0
BBX 7 17 1 -4
BITMAP
0000
0000
0000
FE00
4200
4200
4800
7800
4800
4000
4200
4200
FE00
0000
0000
0000
0000
ENDCHAR
STARTCHAR F
ENCODING 70
SWIDTH 692 0
DWIDTH 9 0
BBX 7 17 1 -4
BITMAP
0000
0000
0000
FE00
4200
4200
4800
7800
4800
4000
4000
4000
F000
0000
0000
0000
0000
ENDCHAR
STARTCHAR G
ENCODING 71
SWIDTH 692 0
DWIDTH 9 0
BBX 8 17 1 -4
BITMAP
0000
0000
0000
3E00
4200
8200
8000
8000
8f00
8200
8200
4200
3c00
0000
0000
0000
0000
ENDCHAR
STARTCHAR H
ENCODING 72
SWIDTH 692 0
DWIDTH 9 0
BBX 8 17 1 -4
BITMAP
0000
0000
0000
E700
4200
4200
4200
7E00
4200
4200
4200
4200
E700
0000
0000
0000
0000
ENDCHAR
STARTCHAR I
ENCODING 73
SWIDTH 692 0
DWIDTH 9 0
BBX 5 17 2 -4
BITMAP
0000
0000
0000
F800
2000
2000
2000
2000
2000
2000
2000
2000
F800
0000
0000
0000
0000
ENDCHAR
STARTCHAR J
ENCODING 74
SWIDTH 692 0
DWIDTH 9 0
BBX 7 17 1 -4
BITMAP
0000
0000
0000
1e00
0400
0400
0400
0400
0400
0400
8400
8400
7800
0000
0000
0000
0000
ENDCHAR
STARTCHAR K
ENCODING 75
SWIDTH 692 0
DWIDTH 9 0
BBX 8 17 1 -4
BITMAP
0000
0000
0000
E700
4200
4400
4800
5800
6800
4400
4400
4200
E700
0000
0000
0000
0000
ENDCHAR
STARTCHAR L
ENCODING 76
SWIDTH 692 0
DWIDTH 9 0
BBX 7 17 1 -4
BITMAP
0000
0000
0000
E000
4000
4000
4000
4000
4000
4000
4200
4200
FE00
0000
0000
0000
0000
ENDCHAR
STARTCHAR M
ENCODING 77
SWIDTH 692 0
DWIDTH 9 0
BBX 9 17 0 -4
BITMAP
0000
0000
0000
C180
6300
6300
5500
5500
4900
4900
4100
4100
E380
0000
0000
0000
0000
ENDCHAR
STARTCHAR N
ENCODING 78
SWIDTH 692 0
DWIDTH 9 0
BBX 8 17 1 -4
BITMAP
0000
0000
0000
C700
6200
6200
5200
5200
4A00
4A00
4600
4600
E200
0000
0000
0000
0000
ENDCHAR
STARTCHAR O
ENCODING 79
SWIDTH 692 0
DWIDTH 9 0
BBX 8 17 1 -4
BITMAP
0000
0000
0000
3C00
4200
8100
8100
8100
8100
8100
8100
4200
3C00
0000
0000
0000
0000
ENDCHAR
STARTCHAR P
ENCODING 80
SWIDTH 692 0
DWIDTH 9 0
BBX 7 17 1 -4
BITMAP
0000
0000
0000
FC00
4200
4200
4200
4200
7C00
4000
4000
4000
F000
0000
0000
0000
0000
ENDCHAR
STARTCHAR Q
ENCODING 81
SWIDTH 692 0
DWIDTH 9 0
BBX 8 17 1 -4
BITMAP
0000
0000
0000
3C00
4200
8100
8100
8100
8100
8100
8100
4a00
3C00
0400
0200
0100
0000
ENDCHAR
STARTCHAR R
ENCODING 82
SWIDTH 692 0
DWIDTH 9 0
BBX 8 17 1 -4
BITMAP
0000
0000
0000
FC00
4200
4200
4200
7C00
4800
4400
4400
4200
E300
0000
0000
0000
0000
ENDCHAR
STARTCHAR S
ENCODING 83
SWIDTH 692 0
DWIDTH 9 0
BBX 6 17 2 -4
BITMAP
0000
0000
0000
7C00
8400
8000
8000
6000
1800
0400
0400
8400
F800
0000
0000
0000
0000
ENDCHAR
STARTCHAR T
ENCODING 84
SWIDTH 692 0
DWIDTH 9 0
BBX 7 17 1 -4
BITMAP
0000
0000
0000
FE00
9200
9200
1000
1000
1000
1000
1000
1000
7C00
0000
0000
0000
0000
ENDCHAR
STARTCHAR U
ENCODING 85
SWIDTH 692 0
DWIDTH 9 0
BBX 8 17 1 -4
BITMAP
0000
0000
0000
E700
4200
4200
4200
4200
4200
4200
4200
4200
3C00
0000
0000
0000
0000
ENDCHAR
STARTCHAR V
ENCODING 86
SWIDTH 692 0
DWIDTH 9 0
BBX 9 17 0 -4
BITMAP
0000
0000
0000
E380
4100
4100
2200
2200
2200
1400
1400
0800
0800
0000
0000
0000
0000
ENDCHAR
STARTCHAR W
ENCODING 87
SWIDTH 692 0
DWIDTH 9 0
BBX 9 17 0 -4
BITMAP
0000
0000
0000
E380
4100
4100
4900
4900
5500
5500
2200
2200
2200
0000
0000
0000
0000
ENDCHAR
STARTCHAR X
ENCODING 88
SWIDTH 692 0
DWIDTH 9 0
BBX 8 17 1 -4
BITMAP
0000
0000
0000
E700
4200
2400
2400
1800
1800
2400
2400
4200
E700
0000
0000
0000
0000
ENDCHAR
STARTCHAR Y
ENCODING 89
SWIDTH 692 0
DWIDTH 9 0
BBX 9 17 0 -4
BITMAP
0000
0000
0000
f380
4100
2200
2200
1400
0800
0800
0800
0800
3e00
0000
0000
0000
0000
ENDCHAR
STARTCHAR Z
ENCODING 90
SWIDTH 692 0
DWIDTH 9 0
BBX 7 17 1 -4
BITMAP
0000
0000
0000
FE00
8200
8400
0800
1000
2000
4000
8200
8200
FE00
0000
0000
0000
0000
ENDCHAR
STARTCHAR OpenBracket
ENCODING 91
SWIDTH 692 0
DWIDTH 9 0
BBX 4 17 3 -4
BITMAP
0000
F000
C000
C000
C000
C000
C000
C000
C000
C000
C000
C000
C000
C000
F000
0000
0000
ENDCHAR
STARTCHAR BackSlash
ENCODING 92
SWIDTH 692 0
DWIDTH 9 0
BBX 7 17 1 -4
BITMAP
0000
8000
8000
4000
4000
2000
2000
1000
1000
0800
0800
0400
0400
0200
0200
0000
0000
ENDCHAR
STARTCHAR CloseBracket
ENCODING 93
SWIDTH 692 0
DWIDTH 9 0
BBX 4 17 3 -4
BITMAP
0000
F000
3000
3000
3000
3000
3000
3000
3000
3000
3000
3000
3000
3000
F000
0000
0000
ENDCHAR
STARTCHAR Circumflex
ENCODING 94
SWIDTH 692 0
DWIDTH 9 0
BBX 7 17 1 -4
BITMAP
0000
0000
1000
3800
6c00
8200
0000
0000
0000
0000
0000
0000
0000
0000
0000
0000
0000
ENDCHAR
STARTCHAR Underscore
ENCODING 95
SWIDTH 692 0
DWIDTH 9 0
BBX 9 17 0 -4
BITMAP
0000
0000
0000
0000
0000
0000
0000
0000
0000
0000
0000
0000
0000
FF80
0000
0000
0000
ENDCHAR
STARTCHAR SingleOpenQuot
ENCODING 96
SWIDTH 692 0
DWIDTH 9 0
BBX 3 17 4 -4
BITMAP
0000
0000
2000
4000
8000
C000
C000
0000
0000
0000
0000
0000
0000
0000
0000
0000
0000
ENDCHAR
STARTCHAR a
ENCODING 97
SWIDTH 692 0
DWIDTH 9 0
BBX 7 17 2 -4
BITMAP
0000
0000
0000
0000
0000
0000
3800
4400
0400
7C00
8400
8C00
7600
0000
0000
0000
0000
ENDCHAR
STARTCHAR b
ENCODING 98
SWIDTH 692 0
DWIDTH 9 0
BBX 7 17 1 -4
BITMAP
0000
0000
0000
C000
4000
4000
5c00
6200
4200
4200
4200
6200
5c00
0000
0000
0000
0000
ENDCHAR
STARTCHAR c
ENCODING 99
SWIDTH 692 0
DWIDTH 9 0
BBX 6 17 2 -4
BITMAP
0000
0000
0000
0000
0000
0000
7C00
8400
8000
8000
8000
8400
7800
0000
0000
0000
0000
ENDCHAR
STARTCHAR d
ENCODING 100
SWIDTH 692 0
DWIDTH 9 0
BBX 7 17 1 -4
BITMAP
0000
0000
0000
0C00
0400
0400
7400
8C00
8400
8400
8400
8C00
7600
0000
0000
0000
0000
ENDCHAR
STARTCHAR e
ENCODING 101
SWIDTH 692 0
DWIDTH 9 0
BBX 6 17 2 -4
BITMAP
0000
0000
0000
0000
0000
0000
7800
8400
8400
Fc00
8000
8400
7800
0000
0000
0000
0000
ENDCHAR
STARTCHAR f
ENCODING 102
SWIDTH 692 0
DWIDTH 9 0
BBX 6 17 2 -4
BITMAP
0000
0000
0000
1C00
2000
2000
FC00
2000
2000
2000
2000
2000
FC00
0000
0000
0000
0000
ENDCHAR
STARTCHAR g
ENCODING 103
SWIDTH 692 0
DWIDTH 9 0
BBX 7 17 2 -4
BITMAP
0000
0000
0000
0000
0000
0000
7600
8800
8800
8800
7000
8000
7C00
8200
8400
7800
0000
ENDCHAR
STARTCHAR h
ENCODING 104
SWIDTH 692 0
DWIDTH 9 0
BBX 8 17 1 -4
BITMAP
0000
0000
0000
C000
4000
4000
5C00
6200
4200
4200
4200
4200
E700
0000
0000
0000
0000
ENDCHAR
STARTCHAR i
ENCODING 105
SWIDTH 692 0
DWIDTH 9 0
BBX 5 17 2 -4
BITMAP
0000
0000
0000
2000
2000
0000
E000
2000
2000
2000
2000
2000
F800
0000
0000
0000
0000
ENDCHAR
STARTCHAR j
ENCODING 106
SWIDTH 692 0
DWIDTH 9 0
BBX 5 17 1 -4
BITMAP
0000
0000
0000
0800
0800
0000
3800
0800
0800
0800
0800
0800
0800
0800
8800
7000
0000
ENDCHAR
STARTCHAR k
ENCODING 107
SWIDTH 692 0
DWIDTH 9 0
BBX 8 17 1 -4
BITMAP
0000
0000
0000
C000
4000
4000
4E00
4800
5000
7000
4800
4400
E300
0000
0000
0000
0000
ENDCHAR
STARTCHAR l
ENCODING 108
SWIDTH 692 0
DWIDTH 9 0
BBX 5 17 3 -4
BITMAP
0000
0000
0000
E000
2000
2000
2000
2000
2000
2000
2000
2000
F800
0000
0000
0000
0000
ENDCHAR
STARTCHAR m
ENCODING 109
SWIDTH 692 0
DWIDTH 9 0
BBX 9 17 0 -4
BITMAP
0000
0000
0000
0000
0000
0000
B600
4900
4900
4900
4900
4900
DB80
0000
0000
0000
0000
ENDCHAR
STARTCHAR n
ENCODING 110
SWIDTH 692 0
DWIDTH 9 0
BBX 8 17 1 -4
BITMAP
0000
0000
0000
0000
0000
0000
DC00
6200
4200
4200
4200
4200
E700
0000
0000
0000
0000
ENDCHAR
STARTCHAR o
ENCODING 111
SWIDTH 692 0
DWIDTH 9 0
BBX 6 17 2 -4
BITMAP
0000
0000
0000
0000
0000
0000
7800
8400
8400
8400
8400
8400
7800
0000
0000
0000
0000
ENDCHAR
STARTCHAR p
ENCODING 112
SWIDTH 692 0
DWIDTH 9 0
BBX 7 17 1 -4
BITMAP
0000
0000
0000
0000
0000
0000
Dc00
6200
4200
4200
4200
6200
5c00
4000
4000
e000
0000
ENDCHAR
STARTCHAR q
ENCODING 113
SWIDTH 692 0
DWIDTH 9 0
BBX 7 17 2 -4
BITMAP
0000
0000
0000
0000
0000
0000
7400
8C00
8400
8400
8400
8C00
7400
0400
0400
0E00
0000
ENDCHAR
STARTCHAR r
ENCODING 114
SWIDTH 692 0
DWIDTH 9 0
BBX 6 17 2 -4
BITMAP
0000
0000
0000
0000
0000
0000
dc00
6400
4000
4000
4000
4000
f000
0000
0000
0000
0000
ENDCHAR
STARTCHAR s
ENCODING 115
SWIDTH 692 0
DWIDTH 9 0
BBX 6 17 2 -4
BITMAP
0000
0000
0000
0000
0000
0000
7C00
8400
8000
7800
0400
8400
F800
0000
0000
0000
0000
ENDCHAR
STARTCHAR t
ENCODING 116
SWIDTH 692 0
DWIDTH 9 0
BBX 7 17 1 -4
BITMAP
0000
0000
0000
0000
2000
2000
FC00
2000
2000
2000
2000
2200
1C00
0000
0000
0000
0000
ENDCHAR
STARTCHAR u
ENCODING 117
SWIDTH 692 0
DWIDTH 9 0
BBX 8 17 1 -4
BITMAP
0000
0000
0000
0000
0000
0000
C600
4200
4200
4200
4200
4600
3B00
0000
0000
0000
0000
ENDCHAR
STARTCHAR v
ENCODING 118
SWIDTH 692 0
DWIDTH 9 0
BBX 7 17 1 -4
BITMAP
0000
0000
0000
0000
0000
0000
c600
4400
4400
2800
2800
1000
1000
0000
0000
0000
0000
ENDCHAR
STARTCHAR w
ENCODING 119
SWIDTH 692 0
DWIDTH 9 0
BBX 9 17 0 -4
BITMAP
0000
0000
0000
0000
0000
0000
E380
4900
4900
5500
5500
2200
2200
0000
0000
0000
0000
ENDCHAR
STARTCHAR x
ENCODING 120
SWIDTH 692 0
DWIDTH 9 0
BBX 7 17 1 -4
BITMAP
0000
0000
0000
0000
0000
0000
EE00
4400
2800
1000
2800
4400
EE00
0000
0000
0000
0000
ENDCHAR
STARTCHAR y
ENCODING 121
SWIDTH 692 0
DWIDTH 9 0
BBX 7 17 1 -4
BITMAP
0000
0000
0000
0000
0000
0000
c600
4400
4400
2800
2800
1000
1000
2000
a000
c000
0000
ENDCHAR
STARTCHAR z
ENCODING 122
SWIDTH 692 0
DWIDTH 9 0
BBX 7 17 1 -4
BITMAP
0000
0000
0000
0000
0000
0000
7e00
4400
0800
1000
2000
4200
fe00
0000
0000
0000
0000
ENDCHAR
STARTCHAR OpenBrace
ENCODING 123
SWIDTH 692 0
DWIDTH 9 0
BBX 6 17 2 -4
BITMAP
0000
1C00
3000
3000
3000
3000
2000
C000
2000
3000
3000
3000
3000
3000
1C00
0000
0000
ENDCHAR
STARTCHAR LongVertMark
ENCODING 124
SWIDTH 692 0
DWIDTH 9 0
BBX 1 17 4 -4
BITMAP
0000
0000
8000
8000
8000
8000
8000
8000
8000
8000
8000
8000
8000
8000
0000
0000
0000
ENDCHAR
STARTCHAR CloseBrace
ENCODING 125
SWIDTH 692 0
DWIDTH 9 0
BBX 6 17 2 -4
BITMAP
0000
E000
3000
3000
3000
3000
1000
0c00
1000
3000
3000
3000
3000
3000
E000
0000
0000
ENDCHAR
STARTCHAR OneWavyLine
ENCODING 126
SWIDTH 692 0
DWIDTH 9 0
BBX 7 17 1 -4
BITMAP
0000
0000
0000
0000
0000
2000
7200
9c00
0800
0000
0000
0000
0000
0000
0000
0000
0000
ENDCHAR
STARTCHAR MediumShading
ENCODING 127
SWIDTH 692 0
DWIDTH 9 0
BBX 9 17 0 -4
BITMAP
aa80
5500
aa80
5500
aa80
5500
aa80
5500
aa80
5500
aa80
5500
aa80
5500
aa80
5500
aa80
ENDCHAR
STARTCHAR InvExclamation
ENCODING 161
SWIDTH 692 0
DWIDTH 9 0
BBX 2 17 4 -4
BITMAP
0000
0000
0000
C000
C000
0000
0000
c000
C000
C000
C000
C000
C000
C000
C000
0000
0000
ENDCHAR
STARTCHAR CentSign
ENCODING 162
SWIDTH 692 0
DWIDTH 9 0
BBX 6 17 2 -4
BITMAP
0000
0000
0000
1000
1000
3C00
4400
8000
8000
8000
4400
3800
1000
1000
0000
0000
0000
ENDCHAR
STARTCHAR SterlingSign
ENCODING 163
SWIDTH 692 0
DWIDTH 9 0
BBX 7 17 1 -4
BITMAP
0000
0000
0000
1c00
3200
2000
f800
2000
f800
2000
2000
7200
dc00
0000
0000
0000
0000
ENDCHAR
STARTCHAR CurrencySymbol
ENCODING 164
SWIDTH 692 0
DWIDTH 9 0
BBX 8 17 1 -4
BITMAP
0000
0000
0000
8100
5A00
2400
4200
4200
2400
5A00
8100
0000
0000
0000
0000
0000
0000
ENDCHAR
STARTCHAR Yensign
ENCODING 165
SWIDTH 692 0
DWIDTH 9 0
BBX 7 17 1 -4
BITMAP
0000
0000
0000
ee00
4400
4400
2800
2800
FE00
1000
fe00
1000
3800
0000
0000
0000
0000
ENDCHAR
STARTCHAR BrokenVertMark
ENCODING 166
SWIDTH 692 0
DWIDTH 9 0
BBX 1 17 4 -4
BITMAP
0000
0000
8000
8000
8000
8000
8000
0000
0000
8000
8000
8000
8000
8000
0000
0000
0000
ENDCHAR
STARTCHAR SectionMark
ENCODING 167
SWIDTH 692 0
DWIDTH 9 0
BBX 5 17 2 -4
BITMAP
0000
0000
0000
7000
9800
c000
6000
b000
9800
c800
6800
3000
1800
c800
7000
0000
0000
ENDCHAR
STARTCHAR diaeresisAccnt
ENCODING 168
SWIDTH 692 0
DWIDTH 9 0
BBX 4 17 3 -4
BITMAP
0000
0000
0000
9000
9000
0000
0000
0000
0000
0000
0000
0000
0000
0000
0000
0000
0000
ENDCHAR
STARTCHAR CopyrightSign
ENCODING 169
SWIDTH 692 0
DWIDTH 9 0
BBX 8 17 1 -4
BITMAP
0000
0000
0000
0000
3c00
4200
9d00
b100
b100
9d00
4200
3c00
0000
0000
0000
0000
0000
ENDCHAR
STARTCHAR FemaleOrdinal
ENCODING 170
SWIDTH 692 0
DWIDTH 9 0
BBX 6 17 2 -4
BITMAP
0000
0000
7000
0800
7800
8800
7400
0000
fc00
0000
0000
0000
0000
0000
0000
0000
0000
ENDCHAR
STARTCHAR DblOpenAnglQut
ENCODING 171
SWIDTH 692 0
DWIDTH 9 0
BBX 8 17 1 -4
BITMAP
0000
0000
0000
0000
0000
1100
3300
6600
cc00
6600
3300
1100
0000
0000
0000
0000
0000
ENDCHAR
STARTCHAR NotSign
ENCODING 172
SWIDTH 692 0
DWIDTH 9 0
BBX 7 17 1 -4
BITMAP
0000
0000
0000
0000
0000
0000
0000
0000
fe00
0200
0200
0200
0000
0000
0000
0000
0000
ENDCHAR
STARTCHAR SoftHyphen
ENCODING 173
SWIDTH 692 0
DWIDTH 9 0
BBX 7 17 1 -4
BITMAP
0000
0000
0000
0000
0000
0000
0000
0000
fe00
0000
0000
0000
0000
0000
0000
0000
0000
ENDCHAR
STARTCHAR RegisTradeMark
ENCODING 174
SWIDTH 692 0
DWIDTH 9 0
BBX 8 17 1 -4
BITMAP
0000
0000
0000
3c00
4200
b900
ad00
b900
ad00
a500
4200
3c00
0000
0000
0000
0000
0000
ENDCHAR
STARTCHAR macronAccent
ENCODING 175
SWIDTH 692 0
DWIDTH 9 0
BBX 7 17 1 -4
BITMAP
0000
0000
0000
fe00
0000
0000
0000
0000
0000
0000
0000
0000
0000
0000
0000
0000
0000
ENDCHAR
STARTCHAR DegreeSign
ENCODING 176
SWIDTH 692 0
DWIDTH 9 0
BBX 5 17 2 -4
BITMAP
0000
0000
0000
7000
8800
8800
8800
7000
0000
0000
0000
0000
0000
0000
0000
0000
0000
ENDCHAR
STARTCHAR PlusOverMinus
ENCODING 177
SWIDTH 692 0
DWIDTH 9 0
BBX 7 17 1 -4
BITMAP
0000
0000
0000
1000
1000
1000
fe00
1000
1000
1000
0000
fe00
0000
0000
0000
0000
0000
ENDCHAR
STARTCHAR SupNumberTwo
ENCODING 178
SWIDTH 692 0
DWIDTH 9 0
BBX 4 17 2 -4
BITMAP
0000
0000
6000
9000
1000
2000
4000
8000
f000
0000
0000
0000
0000
0000
0000
0000
0000
ENDCHAR
STARTCHAR SupNumberThree
ENCODING 179
SWIDTH 692 0
DWIDTH 9 0
BBX 8 17 1 -4
BITMAP
0000
0000
6000
9000
1000
6000
1000
9000
6000
0000
0000
0000
0000
0000
0000
0000
0000
ENDCHAR
STARTCHAR acuteAccent
ENCODING 180
SWIDTH 692 0
DWIDTH 9 0
BBX 4 17 4 -4
BITMAP
0000
0000
0000
3000
6000
8000
0000
0000
0000
0000
0000
0000
0000
0000
0000
0000
0000
ENDCHAR
STARTCHAR muGreek
ENCODING 181
SWIDTH 692 0
DWIDTH 9 0
BBX 7 17 1 -4
BITMAP
0000
0000
0000
0000
0000
0000
2200
2200
2200
4400
4400
4C00
b600
8000
8000
8000
0000
ENDCHAR
STARTCHAR ParagraphSign
ENCODING 182
SWIDTH 692 0
DWIDTH 9 0
BBX 7 17 1 -4
BITMAP
0000
0000
0000
7e00
f400
f400
f400
f400
7400
1400
1400
1400
1400
1400
1400
0000
0000
ENDCHAR
STARTCHAR middleDot
ENCODING 183
SWIDTH 692 0
DWIDTH 9 0
BBX 1 17 4 -4
BITMAP
0000
0000
0000
0000
0000
0000
0000
8000
8000
0000
0000
0000
0000
0000
0000
0000
0000
ENDCHAR
STARTCHAR cedilla
ENCODING 184
SWIDTH 692 0
DWIDTH 9 0
BBX 5 17 2 -4
BITMAP
0000
0000
0000
0000
0000
0000
0000
0000
0000
0000
0000
0000
0000
2000
3000
8800
7000
ENDCHAR
STARTCHAR SupNumberOne
ENCODING 185
SWIDTH 692 0
DWIDTH 9 0
BBX 3 17 2 -4
BITMAP
0000
0000
2000
6000
a000
2000
2000
2000
0000
0000
0000
0000
0000
0000
0000
0000
0000
ENDCHAR
STARTCHAR MaleOrdinal
ENCODING 186
SWIDTH 692 0
DWIDTH 9 0
BBX 5 17 2 -4
BITMAP
0000
0000
7000
8800
8800
8800
7000
0000
f800
0000
0000
0000
0000
0000
0000
0000
0000
ENDCHAR
STARTCHAR DblClosAnglQut
ENCODING 187
SWIDTH 692 0
DWIDTH 9 0
BBX 8 17 1 -4
BITMAP
0000
0000
0000
0000
0000
8800
cc00
6600
3300
6600
cc00
8800
0000
0000
0000
0000
0000
ENDCHAR
STARTCHAR FracOneFourth
ENCODING 188
SWIDTH 692 0
DWIDTH 9 0
BBX 8 17 1 -4
BITMAP
0000
2000
6000
2000
2100
2200
2400
0800
1400
2400
4800
8A00
1200
3F00
0200
0200
0000
ENDCHAR
STARTCHAR FracOneHalf
ENCODING 189
SWIDTH 692 0
DWIDTH 9 0
BBX 8 17 1 -4
BITMAP
0000
2000
6000
2000
2100
2200
2400
0800
1000
2600
4900
8100
0200
0400
0800
0f00
0000
ENDCHAR
STARTCHAR FracThreeFour
ENCODING 190
SWIDTH 692 0
DWIDTH 9 0
BBX 8 17 1 -4
BITMAP
0000
6000
1000
6000
1100
9200
6400
0800
1400
2400
4800
8A00
1200
3F00
0200
0200
0000
ENDCHAR
STARTCHAR InvertQuestion
ENCODING 191
SWIDTH 692 0
DWIDTH 9 0
BBX 6 17 2 -4
BITMAP
0000
0000
0000
3000
3000
0000
0000
3000
3000
3000
6000
C000
CC00
CC00
7800
0000
0000
ENDCHAR
STARTCHAR Agrave
ENCODING 192
SWIDTH 692 0
DWIDTH 9 0
BBX 9 17 0 -4
BITMAP
3000
1800
0400
0800
0800
1400
1400
2200
2200
3E00
4100
4100
E380
0000
0000
0000
0000
ENDCHAR
STARTCHAR Aacute
ENCODING 193
SWIDTH 692 0
DWIDTH 9 0
BBX 9 17 0 -4
BITMAP
0600
0c00
1000
0800
0800
1400
1400
2200
2200
3E00
4100
4100
E380
0000
0000
0000
0000
ENDCHAR
STARTCHAR Acircumflex
ENCODING 194
SWIDTH 692 0
DWIDTH 9 0
BBX 9 17 0 -4
BITMAP
0800
1C00
2200
0800
0800
1400
1400
2200
2200
3E00
4100
4100
E380
0000
0000
0000
0000
ENDCHAR
STARTCHAR Atilde
ENCODING 195
SWIDTH 692 0
DWIDTH 9 0
BBX 9 17 0 -4
BITMAP
1c00
2e80
0700
0800
0800
1400
1400
2200
2200
3E00
4100
4100
E380
0000
0000
0000
0000
ENDCHAR
STARTCHAR Adiaeresis
ENCODING 196
SWIDTH 692 0
DWIDTH 9 0
BBX 9 17 0 -4
BITMAP
1200
1200
0000
0800
0800
1400
1400
2200
2200
3E00
4100
4100
E380
0000
0000
0000
0000
ENDCHAR
STARTCHAR Abolle
ENCODING 197
SWIDTH 692 0
DWIDTH 9 0
BBX 9 17 0 -4
BITMAP
0c00
1200
1200
0c00
0800
1400
1400
2200
2200
3E00
4100
4100
E380
0000
0000
0000
0000
ENDCHAR
STARTCHAR AEdiphthong
ENCODING 198
SWIDTH 692 0
DWIDTH 9 0
BBX 9 17 0 -4
BITMAP
0000
0000
0000
1f80
0c80
1400
1500
2700
2500
3c00
4400
4480
ef80
0000
0000
0000
0000
ENDCHAR
STARTCHAR Ccedilla
ENCODING 199
SWIDTH 692 0
DWIDTH 9 0
BBX 7 17 1 -4
BITMAP
0000
0000
0000
3E00
4200
8200
8000
8000
8000
8000
8200
4200
3C00
0800
0c00
2200
1c00
ENDCHAR
STARTCHAR Egrave
ENCODING 200
SWIDTH 692 0
DWIDTH 9 0
BBX 7 17 1 -4
BITMAP
c000
6000
1000
0000
FE00
4200
4200
4800
7800
4800
4200
4200
FE00
0000
0000
0000
0000
ENDCHAR
STARTCHAR Eacute
ENCODING 201
SWIDTH 692 0
DWIDTH 9 0
BBX 8 17 1 -4
BITMAP
0600
0c00
1000
0000
FE00
4200
4200
4800
7800
4800
4200
4200
FE00
0000
0000
0000
0000
ENDCHAR
STARTCHAR Ecircumflex
ENCODING 202
SWIDTH 692 0
DWIDTH 9 0
BBX 7 17 1 -4
BITMAP
1000
3800
4400
0000
FE00
4200
4200
4800
7800
4800
4200
4200
FE00
0000
0000
0000
0000
ENDCHAR
STARTCHAR Ediaeresis
ENCODING 203
SWIDTH 692 0
DWIDTH 9 0
BBX 7 17 1 -4
BITMAP
0000
2400
2400
0000
FE00
4200
4200
4800
7800
4800
4200
4200
FE00
0000
0000
0000
0000
ENDCHAR
STARTCHAR Igrave
ENCODING 204
SWIDTH 692 0
DWIDTH 9 0
BBX 6 17 2 -4
BITMAP
C000
6000
1000
0000
7c00
1000
1000
1000
1000
1000
1000
1000
7c00
0000
0000
0000
0000
ENDCHAR
STARTCHAR Iacute
ENCODING 205
SWIDTH 692 0
DWIDTH 9 0
BBX 6 17 2 -4
BITMAP
0c00
1800
2000
0000
F800
2000
2000
2000
2000
2000
2000
2000
F800
0000
0000
0000
0000
ENDCHAR
STARTCHAR Icircumflex
ENCODING 206
SWIDTH 692 0
DWIDTH 9 0
BBX 5 17 2 -4
BITMAP
2000
7000
8800
0000
F800
2000
2000
2000
2000
2000
2000
2000
F800
0000
0000
0000
0000
ENDCHAR
STARTCHAR Idiaeresis
ENCODING 207
SWIDTH 692 0
DWIDTH 9 0
BBX 5 17 2 -4
BITMAP
0000
4800
4800
0000
f800
2000
2000
2000
2000
2000
2000
2000
f800
0000
0000
0000
0000
ENDCHAR
STARTCHAR Eth
ENCODING 208
SWIDTH 692 0
DWIDTH 9 0
BBX 8 17 1 -4
BITMAP
0000
0000
0000
FC00
4200
4100
4100
F100
4100
4100
4100
4200
FC00
0000
0000
0000
0000
ENDCHAR
STARTCHAR Ntilde
ENCODING 209
SWIDTH 692 0
DWIDTH 9 0
BBX 8 17 1 -4
BITMAP
7200
9c00
0000
c700
6200
6200
5200
5200
4a00
4A00
4600
4600
E200
0000
0000
0000
0000
ENDCHAR
STARTCHAR Ograve
ENCODING 210
SWIDTH 692 0
DWIDTH 9 0
BBX 8 17 1 -4
BITMAP
6000
3000
0800
0000
3C00
4200
8100
8100
8100
8100
8100
4200
3C00
0000
0000
0000
0000
ENDCHAR
STARTCHAR Oacute
ENCODING 211
SWIDTH 692 0
DWIDTH 9 0
BBX 8 17 1 -4
BITMAP
0600
0c00
1000
0000
3C00
4200
8100
8100
8100
8100
8100
4200
3C00
0000
0000
0000
0000
ENDCHAR
STARTCHAR Ocircumflex
ENCODING 212
SWIDTH 692 0
DWIDTH 9 0
BBX 8 17 1 -4
BITMAP
0800
1C00
2200
0000
3C00
4200
8100
8100
8100
8100
8100
4200
3C00
0000
0000
0000
0000
ENDCHAR
STARTCHAR Otilde
ENCODING 213
SWIDTH 692 0
DWIDTH 9 0
BBX 8 17 1 -4
BITMAP
3800
5d00
0e00
0000
3c00
4200
8100
8100
8100
8100
8100
4200
3c00
0000
0000
0000
0000
ENDCHAR
STARTCHAR Odiaeresis
ENCODING 214
SWIDTH 692 0
DWIDTH 9 0
BBX 8 17 1 -4
BITMAP
2400
2400
0000
3c00
4200
8100
8100
8100
8100
8100
8100
4200
3C00
0000
0000
0000
0000
ENDCHAR
STARTCHAR MultiplySign
ENCODING 215
SWIDTH 692 0
DWIDTH 9 0
BBX 7 17 1 -4
BITMAP
0000
0000
0000
0000
0000
8200
4400
2800
1000
2800
4400
8200
0000
0000
0000
0000
0000
ENDCHAR
STARTCHAR Ooblique
ENCODING 216
SWIDTH 692 0
DWIDTH 9 0
BBX 8 17 1 -4
BITMAP
0000
0000
0100
3d00
4200
8500
8900
8900
9100
9100
A100
4200
bC00
8000
0000
0000
0000
ENDCHAR
STARTCHAR Ugrave
ENCODING 217
SWIDTH 692 0
DWIDTH 9 0
BBX 8 17 1 -4
BITMAP
6000
3000
0800
0000
e700
4200
4200
4200
4200
4200
4200
4200
3C00
0000
0000
0000
0000
ENDCHAR
STARTCHAR Uacute
ENCODING 218
SWIDTH 692 0
DWIDTH 9 0
BBX 8 17 1 -4
BITMAP
0600
0c00
1000
e700
4200
4200
4200
4200
4200
4200
4200
4200
3C00
0000
0000
0000
0000
ENDCHAR
STARTCHAR Ucircumflex
ENCODING 219
SWIDTH 692 0
DWIDTH 9 0
BBX 8 17 1 -4
BITMAP
0800
1c00
2200
0000
E700
4200
4200
4200
4200
4200
4200
4200
3C00
0000
0000
0000
0000
ENDCHAR
STARTCHAR Udiaeresis
ENCODING 220
SWIDTH 692 0
DWIDTH 9 0
BBX 8 17 1 -4
BITMAP
2400
2400
0000
e700
4200
4200
4200
4200
4200
4200
4200
4200
3C00
0000
0000
0000
0000
ENDCHAR
STARTCHAR Yacute
ENCODING 221
SWIDTH 692 0
DWIDTH 9 0
BBX 9 17 0 -4
BITMAP
0300
0600
0800
e380
4100
2200
2200
1400
0800
0800
0800
0800
3e00
0000
0000
0000
0000
ENDCHAR
STARTCHAR Thorn
ENCODING 222
SWIDTH 692 0
DWIDTH 9 0
BBX 7 17 1 -4
BITMAP
0000
0000
0000
E000
4000
7C00
4200
4200
4200
4200
7C00
4000
E000
0000
0000
0000
0000
ENDCHAR
STARTCHAR EsZetLigature
ENCODING 223
SWIDTH 692 0
DWIDTH 9 0
BBX 8 17 1 -4
BITMAP
0000
0000
0000
3C00
6200
4200
4400
4c00
4200
4100
4100
5100
4e00
4000
c000
0000
0000
ENDCHAR
STARTCHAR agrave
ENCODING 224
SWIDTH 692 0
DWIDTH 9 0
BBX 7 17 2 -4
BITMAP
0000
0000
c000
6000
1000
0000
3800
4400
0400
7C00
8400
8C00
7600
0000
0000
0000
0000
ENDCHAR
STARTCHAR aacute
ENCODING 225
SWIDTH 692 0
DWIDTH 9 0
BBX 7 17 2 -4
BITMAP
0000
0000
0600
0c00
1000
0000
3800
4400
0400
7C00
8400
8C00
7600
0000
0000
0000
0000
ENDCHAR
STARTCHAR acircumflex
ENCODING 226
SWIDTH 692 0
DWIDTH 9 0
BBX 7 17 2 -4
BITMAP
0000
0000
1000
3800
4400
0000
3800
4400
0400
7C00
8400
8C00
7600
0000
0000
0000
0000
ENDCHAR
STARTCHAR atilde
ENCODING 227
SWIDTH 692 0
DWIDTH 9 0
BBX 7 17 2 -4
BITMAP
0000
0000
0000
7200
9C00
0000
3800
4400
0400
7C00
8400
8C00
7600
0000
0000
0000
0000
ENDCHAR
STARTCHAR adiaeresis
ENCODING 228
SWIDTH 692 0
DWIDTH 9 0
BBX 7 17 2 -4
BITMAP
0000
0000
0000
4800
4800
0000
3800
4400
0400
7C00
8400
8C00
7600
0000
0000
0000
0000
ENDCHAR
STARTCHAR abolle
ENCODING 229
SWIDTH 692 0
DWIDTH 9 0
BBX 7 17 2 -4
BITMAP
0000
1800
2400
2400
1800
0000
3800
4400
0400
7C00
8400
8C00
7600
0000
0000
0000
0000
ENDCHAR
STARTCHAR aedihthong
ENCODING 230
SWIDTH 692 0
DWIDTH 9 0
BBX 9 17 0 -4
BITMAP
0000
0000
0000
0000
0000
0000
3700
4880
0880
7F80
8800
8880
7700
0000
0000
0000
0000
ENDCHAR
STARTCHAR ccedilla
ENCODING 231
SWIDTH 692 0
DWIDTH 9 0
BBX 6 17 2 -4
BITMAP
0000
0000
0000
0000
0000
0000
7C00
8400
8000
8000
8000
8400
7800
1000
0800
7000
0000
ENDCHAR
STARTCHAR egrave
ENCODING 232
SWIDTH 692 0
DWIDTH 9 0
BBX 6 17 2 -4
BITMAP
0000
0000
c000
6000
1000
0000
7800
8400
8400
FC00
8000
8400
7800
0000
0000
0000
0000
ENDCHAR
STARTCHAR eacute
ENCODING 233
SWIDTH 692 0
DWIDTH 9 0
BBX 6 17 2 -4
BITMAP
0000
0000
0c00
1800
2000
0000
7800
8400
8400
FC00
8000
8400
7800
0000
0000
0000
0000
ENDCHAR
STARTCHAR ecircumflex
ENCODING 234
SWIDTH 692 0
DWIDTH 9 0
BBX 6 17 2 -4
BITMAP
0000
0000
1000
3800
4400
0000
7800
8400
8400
FC00
8000
8400
7800
0000
0000
0000
0000
ENDCHAR
STARTCHAR ediaeresis
ENCODING 235
SWIDTH 692 0
DWIDTH 9 0
BBX 6 17 2 -4
BITMAP
0000
0000
0000
4800
4800
0000
7800
8400
8400
FC00
8000
8400
7800
0000
0000
0000
0000
ENDCHAR
STARTCHAR igrave
ENCODING 236
SWIDTH 692 0
DWIDTH 9 0
BBX 6 17 1 -4
BITMAP
0000
0000
C000
6000
1000
0000
7000
1000
1000
1000
1000
1000
7C00
0000
0000
0000
0000
ENDCHAR
STARTCHAR iacute
ENCODING 237
SWIDTH 692 0
DWIDTH 9 0
BBX 5 17 2 -4
BITMAP
0000
0000
1800
3000
4000
0000
E000
2000
2000
2000
2000
2000
F800
0000
0000
0000
0000
ENDCHAR
STARTCHAR icircumflex
ENCODING 238
SWIDTH 692 0
DWIDTH 9 0
BBX 5 17 2 -4
BITMAP
0000
0000
2000
7000
8800
0000
e000
2000
2000
2000
2000
2000
f800
0000
0000
0000
0000
ENDCHAR
STARTCHAR idiaeresis
ENCODING 239
SWIDTH 692 0
DWIDTH 9 0
BBX 5 17 2 -4
BITMAP
0000
0000
0000
9000
9000
0000
e000
2000
2000
2000
2000
2000
f800
0000
0000
0000
0000
ENDCHAR
STARTCHAR ethIcelandic
ENCODING 240
SWIDTH 692 0
DWIDTH 9 0
BBX 6 17 2 -4
BITMAP
0000
0000
8000
5800
2000
d000
0800
7800
8400
8400
8400
8400
7800
0000
0000
0000
0000
ENDCHAR
STARTCHAR ntilde
ENCODING 241
SWIDTH 692 0
DWIDTH 9 0
BBX 8 17 1 -4
BITMAP
0000
0000
7000
ba00
1c00
0000
DC00
6200
4200
4200
4200
4200
E700
0000
0000
0000
0000
ENDCHAR
STARTCHAR ograve
ENCODING 242
SWIDTH 692 0
DWIDTH 9 0
BBX 6 17 2 -4
BITMAP
0000
0000
C000
6000
1000
0000
7800
8400
8400
8400
8400
8400
7800
0000
0000
0000
0000
ENDCHAR
STARTCHAR oacute
ENCODING 243
SWIDTH 692 0
DWIDTH 9 0
BBX 7 17 2 -4
BITMAP
0000
0000
0600
0c00
1000
0000
7800
8400
8400
8400
8400
8400
7800
0000
0000
0000
0000
ENDCHAR
STARTCHAR ocircumflex
ENCODING 244
SWIDTH 692 0
DWIDTH 9 0
BBX 6 17 2 -4
BITMAP
0000
0000
1000
3800
4400
0000
7800
8400
8400
8400
8400
8400
7800
0000
0000
0000
0000
ENDCHAR
STARTCHAR otilde
ENCODING 245
SWIDTH 692 0
DWIDTH 9 0
BBX 7 17 2 -4
BITMAP
0000
0000
7000
ba00
1c00
0000
7800
8400
8400
8400
8400
8400
7800
0000
0000
0000
0000
ENDCHAR
STARTCHAR odiaeresis
ENCODING 246
SWIDTH 692 0
DWIDTH 9 0
BBX 6 17 2 -4
BITMAP
0000
0000
0000
4800
4800
0000
7800
8400
8400
8400
8400
8400
7800
0000
0000
0000
0000
ENDCHAR
STARTCHAR DivideSign
ENCODING 247
SWIDTH 692 0
DWIDTH 9 0
BBX 7 17 1 -4
BITMAP
0000
0000
0000
0000
0000
1000
1000
0000
fe00
0000
1000
1000
0000
0000
0000
0000
0000
ENDCHAR
STARTCHAR ooblique
ENCODING 248
SWIDTH 692 0
DWIDTH 9 0
BBX 6 17 2 -4
BITMAP
0000
0000
0000
0000
0000
0800
7800
9400
9400
a400
a400
c400
7800
8000
0000
0000
0000
ENDCHAR
STARTCHAR ugrave
ENCODING 249
SWIDTH 692 0
DWIDTH 9 0
BBX 8 17 1 -4
BITMAP
0000
0000
c000
6000
1000
0000
C600
4200
4200
4200
4200
4600
3B00
0000
0000
0000
0000
ENDCHAR
STARTCHAR uacute
ENCODING 250
SWIDTH 692 0
DWIDTH 9 0
BBX 8 17 1 -4
BITMAP
0000
0000
0600
0c00
1000
0000
C600
4200
4200
4200
4200
4600
3B00
0000
0000
0000
0000
ENDCHAR
STARTCHAR ucircumflex
ENCODING 251
SWIDTH 692 0
DWIDTH 9 0
BBX 8 17 1 -4
BITMAP
0000
0000
1000
3800
4400
0000
C600
4200
4200
4200
4200
4600
3B00
0000
0000
0000
0000
ENDCHAR
STARTCHAR udiaeresis
ENCODING 252
SWIDTH 692 0
DWIDTH 9 0
BBX 8 17 1 -4
BITMAP
0000
0000
0000
2400
2400
0000
C600
4200
4200
4200
4200
4600
3B00
0000
0000
0000
0000
ENDCHAR
STARTCHAR yacute
ENCODING 253
SWIDTH 692 0
DWIDTH 9 0
BBX 7 17 1 -4
BITMAP
0000
0000
0c00
1800
2000
0000
c600
4400
4400
2800
2800
1000
1000
2000
A000
C000
0000
ENDCHAR
STARTCHAR thorn
ENCODING 254
SWIDTH 692 0
DWIDTH 9 0
BBX 7 17 1 -4
BITMAP
0000
0000
0000
C000
4000
4000
5C00
6200
4200
4200
4200
6200
5C00
4000
4000
E000
0000
ENDCHAR
STARTCHAR ydiaeresis
ENCODING 255
SWIDTH 692 0
DWIDTH 9 0
BBX 7 17 1 -4
BITMAP
0000
0000
0000
2400
2400
0000
c600
4400
4400
2800
2800
1000
1000
2000
A000
C000
0000
ENDCHAR
ENDFONT
